<svg data-v-423bf9ae="" xmlns="http://www.w3.org/2000/svg" viewBox="0 0 401.2441320864579 172" class="iconAbove"><!----><!----><!----><g data-v-423bf9ae="" id="213c85a2-eb72-4992-b531-e04e6cda2cc2" fill="#ffffff" transform="matrix(4.724409874540003,0,0,4.724409874540003,-3.8267767406715905,91.38375817339147)"><path d="M7.82 11.53L7.82 11.53L7.82 11.53Q7.82 11.98 7.79 12.34L7.79 12.34L7.79 12.34Q7.77 12.69 7.69 12.99L7.69 12.99L7.69 12.99Q7.62 13.29 7.54 13.51L7.54 13.51L7.54 13.51Q7.46 13.74 7.31 13.91L7.31 13.91L7.31 13.91Q7.16 14.09 7.01 14.21L7.01 14.21L7.01 14.21Q6.86 14.33 6.63 14.42L6.63 14.42L6.63 14.42Q6.39 14.51 6.17 14.56L6.17 14.56L6.17 14.56Q5.95 14.61 5.63 14.64L5.63 14.64L5.63 14.64Q5.30 14.66 5.00 14.67L5.00 14.67L5.00 14.67Q4.70 14.68 4.27 14.68L4.27 14.68L4.27 14.68Q3.46 14.68 2.91 14.64L2.91 14.64L2.91 14.64Q2.36 14.59 1.97 14.43L1.97 14.43L1.97 14.43Q1.59 14.27 1.37 14.11L1.37 14.11L1.37 14.11Q1.16 13.94 1.04 13.57L1.04 13.57L1.04 13.57Q0.92 13.21 0.88 12.87L0.88 12.87L0.88 12.87Q0.84 12.54 0.81 11.92L0.81 11.92L2.08 11.72L2.08 11.72Q2.10 11.87 2.12 12.14L2.12 12.14L2.12 12.14Q2.16 12.56 2.20 12.74L2.20 12.74L2.20 12.74Q2.24 12.91 2.34 13.13L2.34 13.13L2.34 13.13Q2.45 13.34 2.69 13.40L2.69 13.40L2.69 13.40Q2.92 13.47 3.29 13.51L3.29 13.51L3.29 13.51Q3.67 13.56 4.30 13.56L4.30 13.56L4.30 13.56Q4.82 13.56 5.15 13.54L5.15 13.54L5.15 13.54Q5.49 13.51 5.74 13.42L5.74 13.42L5.74 13.42Q6.00 13.34 6.13 13.23L6.13 13.23L6.13 13.23Q6.25 13.12 6.33 12.89L6.33 12.89L6.33 12.89Q6.41 12.66 6.43 12.41L6.43 12.41L6.43 12.41Q6.45 12.17 6.45 11.76L6.45 11.76L6.45 11.76Q6.44 10.86 6.35 10.51L6.35 10.51L6.35 10.51Q6.25 10.17 5.95 10.10L5.95 10.10L2.55 9.51L2.55 9.51Q1.66 9.36 1.31 8.83L1.31 8.83L1.31 8.83Q0.96 8.31 0.94 7.13L0.94 7.13L0.94 7.13Q0.94 6.50 1.01 6.05L1.01 6.05L1.01 6.05Q1.07 5.61 1.23 5.27L1.23 5.27L1.23 5.27Q1.39 4.93 1.63 4.72L1.63 4.72L1.63 4.72Q1.87 4.52 2.25 4.39L2.25 4.39L2.25 4.39Q2.64 4.27 3.10 4.22L3.10 4.22L3.10 4.22Q3.56 4.18 4.23 4.18L4.23 4.18L4.23 4.18Q4.78 4.18 5.17 4.20L5.17 4.20L5.17 4.20Q5.56 4.22 5.94 4.29L5.94 4.29L5.94 4.29Q6.31 4.35 6.56 4.46L6.56 4.46L6.56 4.46Q6.80 4.57 7.01 4.74L7.01 4.74L7.01 4.74Q7.22 4.92 7.33 5.16L7.33 5.16L7.33 5.16Q7.45 5.41 7.51 5.75L7.51 5.75L7.51 5.75Q7.57 6.08 7.57 6.52L7.57 6.52L6.36 6.80L6.36 6.80Q6.29 6.05 6.27 5.95L6.27 5.95L6.27 5.95Q6.19 5.60 5.88 5.48L5.88 5.48L5.88 5.48Q5.54 5.33 4.45 5.33L4.45 5.33L4.45 5.33Q3.86 5.33 3.47 5.37L3.47 5.37L3.47 5.37Q3.08 5.40 2.84 5.47L2.84 5.47L2.84 5.47Q2.59 5.53 2.47 5.66L2.47 5.66L2.47 5.66Q2.35 5.79 2.31 5.94L2.31 5.94L2.31 5.94Q2.27 6.08 2.27 6.32L2.27 6.32L2.27 7.51L2.27 7.51Q2.27 8.15 2.83 8.24L2.83 8.24L5.28 8.66L5.28 8.66Q5.62 8.72 5.82 8.76L5.82 8.76L5.82 8.76Q6.03 8.80 6.30 8.87L6.30 8.87L6.30 8.87Q6.56 8.93 6.71 9.01L6.71 9.01L6.71 9.01Q6.86 9.08 7.05 9.20L7.05 9.20L7.05 9.20Q7.23 9.32 7.33 9.46L7.33 9.46L7.33 9.46Q7.44 9.60 7.54 9.80L7.54 9.80L7.54 9.80Q7.65 10.00 7.70 10.25L7.70 10.25L7.70 10.25Q7.75 10.50 7.79 10.82L7.79 10.82L7.79 10.82Q7.82 11.14 7.82 11.53ZM12.58 13.57L12.58 13.57L12.56 14.53L12.56 14.53Q11.98 14.62 11.52 14.62L11.52 14.62L11.52 14.62Q11.02 14.62 10.69 14.51L10.69 14.51L10.69 14.51Q10.37 14.40 10.21 14.16L10.21 14.16L10.21 14.16Q10.04 13.92 9.98 13.63L9.98 13.63L9.98 13.63Q9.92 13.34 9.92 12.89L9.92 12.89L9.92 7.79L8.90 7.79L8.90 7.02L9.92 7.02L9.92 4.89L11.26 4.78L11.26 7.02L12.64 7.02L12.64 7.79L11.26 7.79L11.26 12.43L11.26 12.43Q11.26 13.17 11.33 13.39L11.33 13.39L11.33 13.39Q11.40 13.61 11.72 13.61L11.72 13.61L11.72 13.61Q12.04 13.61 12.58 13.57ZM18.75 7.02L20.13 7.02L17.76 14.16L17.76 14.16Q17.67 14.42 17.57 14.78L17.57 14.78L17.57 14.78Q17.47 15.15 17.41 15.37L17.41 15.37L17.41 15.37Q17.34 15.60 17.24 15.87L17.24 15.87L17.24 15.87Q17.14 16.14 17.03 16.30L17.03 16.30L17.03 16.30Q16.91 16.46 16.74 16.61L16.74 16.61L16.74 16.61Q16.57 16.75 16.33 16.82L16.33 16.82L16.33 16.82Q16.09 16.88 15.78 16.88L15.78 16.88L15.78 16.88Q14.96 16.88 14.30 16.73L14.30 16.73L14.51 15.69L14.51 15.69Q14.64 15.70 14.85 15.74L14.85 15.74L14.85 15.74Q15.07 15.78 15.23 15.80L15.23 15.80L15.23 15.80Q15.39 15.82 15.53 15.82L15.53 15.82L15.53 15.82Q15.97 15.82 16.19 15.52L16.19 15.52L16.19 15.52Q16.42 15.22 16.43 14.40L16.43 14.40L13.62 7.02L14.98 7.02L16.36 10.83L16.36 10.83Q16.73 11.87 17.06 12.79L17.06 12.79L17.06 12.79Q17.28 11.96 17.72 10.51L17.72 10.51L18.75 7.02ZM22.84 4.25L22.84 14.52L21.49 14.52L21.49 4.36L22.84 4.25ZM30.86 10.66L30.86 10.66L30.86 10.66Q30.04 10.75 29.84 10.76L29.84 10.76L26.11 10.76L26.11 10.76Q26.12 11.75 26.17 12.93L26.17 12.93L26.17 12.93Q26.20 13.39 26.56 13.54L26.56 13.54L26.56 13.54Q26.92 13.69 27.96 13.69L27.96 13.69L27.96 13.69Q28.35 13.69 28.63 13.65L28.63 13.65L28.63 13.65Q28.91 13.62 29.08 13.55L29.08 13.55L29.08 13.55Q29.26 13.47 29.36 13.40L29.36 13.40L29.36 13.40Q29.46 13.32 29.50 13.17L29.50 13.17L29.50 13.17Q29.55 13.02 29.57 12.91L29.57 12.91L29.57 12.91Q29.58 12.80 29.59 12.59L29.59 12.59L29.59 12.59Q29.61 12.37 29.63 12.24L29.63 12.24L30.67 12.43L30.67 12.43Q30.66 12.91 30.60 13.24L30.60 13.24L30.60 13.24Q30.55 13.57 30.42 13.82L30.42 13.82L30.42 13.82Q30.29 14.08 30.11 14.22L30.11 14.22L30.11 14.22Q29.93 14.37 29.63 14.46L29.63 14.46L29.63 14.46Q29.33 14.56 28.97 14.59L28.97 14.59L28.97 14.59Q28.61 14.62 28.08 14.62L28.08 14.62L28.08 14.62Q27.39 14.62 26.89 14.54L26.89 14.54L26.89 14.54Q26.38 14.46 26.02 14.35L26.02 14.35L26.02 14.35Q25.66 14.23 25.43 13.97L25.43 13.97L25.43 13.97Q25.20 13.71 25.06 13.47L25.06 13.47L25.06 13.47Q24.93 13.23 24.87 12.76L24.87 12.76L24.87 12.76Q24.81 12.30 24.79 11.92L24.79 11.92L24.79 11.92Q24.77 11.54 24.77 10.87L24.77 10.87L24.77 10.87Q24.77 9.93 24.80 9.40L24.80 9.40L24.80 9.40Q24.82 8.87 24.93 8.34L24.93 8.34L24.93 8.34Q25.04 7.81 25.22 7.57L25.22 7.57L25.22 7.57Q25.41 7.33 25.77 7.13L25.77 7.13L25.77 7.13Q26.13 6.92 26.63 6.87L26.63 6.87L26.63 6.87Q27.12 6.81 27.88 6.81L27.88 6.81L27.88 6.81Q28.40 6.81 28.79 6.84L28.79 6.84L28.79 6.84Q29.17 6.87 29.49 6.97L29.49 6.97L29.49 6.97Q29.81 7.06 30.02 7.18L30.02 7.18L30.02 7.18Q30.23 7.31 30.39 7.55L30.39 7.55L30.39 7.55Q30.55 7.79 30.64 8.04L30.64 8.04L30.64 8.04Q30.72 8.30 30.78 8.72L30.78 8.72L30.78 8.72Q30.83 9.15 30.84 9.58L30.84 9.58L30.84 9.58Q30.86 10.01 30.86 10.66ZM26.12 10.04L26.12 10.04L29.51 10.04L29.51 10.04Q29.50 9.17 29.44 8.44L29.44 8.44L29.44 8.44Q29.42 8.03 29.08 7.89L29.08 7.89L29.08 7.89Q28.75 7.75 27.87 7.75L27.87 7.75L27.87 7.75Q26.89 7.75 26.63 7.85L26.63 7.85L26.63 7.85Q26.52 7.89 26.43 7.97L26.43 7.97L26.43 7.97Q26.35 8.06 26.29 8.22L26.29 8.22L26.29 8.22Q26.24 8.37 26.21 8.51L26.21 8.51L26.21 8.51Q26.17 8.65 26.16 8.89L26.16 8.89L26.16 8.89Q26.14 9.13 26.13 9.27L26.13 9.27L26.13 9.27Q26.13 9.40 26.12 9.67L26.12 9.67L26.12 9.67Q26.12 9.95 26.12 10.04ZM43.00 4.33L43.00 14.52L41.56 14.52L36.71 6.47L36.71 14.52L35.49 14.52L35.49 4.33L36.89 4.33L41.79 12.49L41.79 4.33L43.00 4.33ZM48.15 13.68L48.15 13.68L48.15 13.68Q49.12 13.66 49.50 13.54L49.50 13.54L49.50 13.54Q49.88 13.41 49.88 13.05L49.88 13.05L49.88 13.05Q49.96 12.07 49.96 10.79L49.96 10.79L49.96 10.79Q49.96 10.36 49.92 9.57L49.92 9.57L49.92 9.57Q49.89 8.78 49.89 8.40L49.89 8.40L49.89 8.40Q49.89 8.29 49.85 8.19L49.85 8.19L49.85 8.19Q49.81 8.09 49.73 8.03L49.73 8.03L49.73 8.03Q49.64 7.96 49.56 7.92L49.56 7.92L49.56 7.92Q49.47 7.87 49.32 7.84L49.32 7.84L49.32 7.84Q49.16 7.81 49.06 7.79L49.06 7.79L49.06 7.79Q48.95 7.77 48.76 7.77L48.76 7.77L48.76 7.77Q48.56 7.76 48.46 7.76L48.46 7.76L48.46 7.76Q48.35 7.76 48.15 7.76L48.15 7.76L48.15 7.76Q47.94 7.76 47.83 7.76L47.83 7.76L47.83 7.76Q47.73 7.76 47.53 7.77L47.53 7.77L47.53 7.77Q47.34 7.77 47.23 7.79L47.23 7.79L47.23 7.79Q47.13 7.81 46.97 7.84L46.97 7.84L46.97 7.84Q46.82 7.87 46.73 7.92L46.73 7.92L46.73 7.92Q46.65 7.96 46.56 8.03L46.56 8.03L46.56 8.03Q46.48 8.09 46.44 8.19L46.44 8.19L46.44 8.19Q46.40 8.29 46.40 8.40L46.40 8.40L46.40 8.40Q46.40 8.78 46.37 9.57L46.37 9.57L46.37 9.57Q46.33 10.36 46.33 10.79L46.33 10.79L46.33 10.79Q46.33 12.07 46.41 13.05L46.41 13.05L46.41 13.05Q46.41 13.41 46.81 13.55L46.81 13.55L46.81 13.55Q47.21 13.68 48.15 13.68ZM48.14 14.62L48.14 14.62L48.14 14.62Q47.38 14.62 46.87 14.56L46.87 14.56L46.87 14.56Q46.37 14.50 46.00 14.29L46.00 14.29L46.00 14.29Q45.64 14.08 45.45 13.85L45.45 13.85L45.45 13.85Q45.25 13.61 45.14 13.10L45.14 13.10L45.14 13.10Q45.04 12.59 45.01 12.09L45.01 12.09L45.01 12.09Q44.99 11.59 44.99 10.71L44.99 10.71L44.99 10.71Q44.99 10.04 45.00 9.60L45.00 9.60L45.00 9.60Q45.02 9.15 45.08 8.73L45.08 8.73L45.08 8.73Q45.14 8.30 45.24 8.04L45.24 8.04L45.24 8.04Q45.33 7.77 45.50 7.54L45.50 7.54L45.50 7.54Q45.68 7.30 45.90 7.18L45.90 7.18L45.90 7.18Q46.12 7.05 46.45 6.96L46.45 6.96L46.45 6.96Q46.79 6.87 47.19 6.84L47.19 6.84L47.19 6.84Q47.59 6.81 48.15 6.81L48.15 6.81L48.15 6.81Q48.70 6.81 49.10 6.84L49.10 6.84L49.10 6.84Q49.50 6.87 49.84 6.96L49.84 6.96L49.84 6.96Q50.18 7.05 50.39 7.18L50.39 7.18L50.39 7.18Q50.61 7.30 50.79 7.54L50.79 7.54L50.79 7.54Q50.96 7.77 51.05 8.04L51.05 8.04L51.05 8.04Q51.15 8.30 51.21 8.73L51.21 8.73L51.21 8.73Q51.27 9.15 51.29 9.60L51.29 9.60L51.29 9.60Q51.30 10.04 51.30 10.71L51.30 10.71L51.30 10.71Q51.30 11.59 51.28 12.09L51.28 12.09L51.28 12.09Q51.26 12.59 51.15 13.10L51.15 13.10L51.15 13.10Q51.04 13.61 50.84 13.85L50.84 13.85L50.84 13.85Q50.65 14.09 50.28 14.29L50.28 14.29L50.28 14.29Q49.92 14.50 49.41 14.56L49.41 14.56L49.41 14.56Q48.90 14.62 48.14 14.62ZM62.70 11.53L62.70 11.53L62.70 11.53Q62.70 11.98 62.67 12.34L62.67 12.34L62.67 12.34Q62.64 12.69 62.57 12.99L62.57 12.99L62.57 12.99Q62.50 13.29 62.42 13.51L62.42 13.51L62.42 13.51Q62.34 13.74 62.19 13.91L62.19 13.91L62.19 13.91Q62.04 14.09 61.89 14.21L61.89 14.21L61.89 14.21Q61.74 14.33 61.51 14.42L61.51 14.42L61.51 14.42Q61.27 14.51 61.05 14.56L61.05 14.56L61.05 14.56Q60.83 14.61 60.50 14.64L60.50 14.64L60.50 14.64Q60.18 14.66 59.88 14.67L59.88 14.67L59.88 14.67Q59.58 14.68 59.15 14.68L59.15 14.68L59.15 14.68Q58.34 14.68 57.79 14.64L57.79 14.64L57.79 14.64Q57.24 14.59 56.85 14.43L56.85 14.43L56.85 14.43Q56.46 14.27 56.25 14.11L56.25 14.11L56.25 14.11Q56.04 13.94 55.92 13.57L55.92 13.57L55.92 13.57Q55.79 13.21 55.76 12.87L55.76 12.87L55.76 12.87Q55.72 12.54 55.69 11.92L55.69 11.92L56.96 11.72L56.96 11.72Q56.98 11.87 57.00 12.14L57.00 12.14L57.00 12.14Q57.04 12.56 57.08 12.74L57.08 12.74L57.08 12.74Q57.11 12.91 57.22 13.13L57.22 13.13L57.22 13.13Q57.33 13.34 57.57 13.40L57.57 13.40L57.57 13.40Q57.80 13.47 58.17 13.51L58.17 13.51L58.17 13.51Q58.55 13.56 59.18 13.56L59.18 13.56L59.18 13.56Q59.70 13.56 60.03 13.54L60.03 13.54L60.03 13.54Q60.37 13.51 60.62 13.42L60.62 13.42L60.62 13.42Q60.87 13.34 61.00 13.23L61.00 13.23L61.00 13.23Q61.13 13.12 61.21 12.89L61.21 12.89L61.21 12.89Q61.29 12.66 61.31 12.41L61.31 12.41L61.31 12.41Q61.33 12.17 61.33 11.76L61.33 11.76L61.33 11.76Q61.32 10.86 61.23 10.51L61.23 10.51L61.23 10.51Q61.13 10.17 60.83 10.10L60.83 10.10L57.43 9.51L57.43 9.51Q56.54 9.36 56.19 8.83L56.19 8.83L56.19 8.83Q55.84 8.31 55.82 7.13L55.82 7.13L55.82 7.13Q55.82 6.50 55.89 6.05L55.89 6.05L55.89 6.05Q55.95 5.61 56.11 5.27L56.11 5.27L56.11 5.27Q56.27 4.93 56.51 4.72L56.51 4.72L56.51 4.72Q56.75 4.52 57.13 4.39L57.13 4.39L57.13 4.39Q57.52 4.27 57.98 4.22L57.98 4.22L57.98 4.22Q58.44 4.18 59.11 4.18L59.11 4.18L59.11 4.18Q59.66 4.18 60.05 4.20L60.05 4.20L60.05 4.20Q60.44 4.22 60.82 4.29L60.82 4.29L60.82 4.29Q61.19 4.35 61.43 4.46L61.43 4.46L61.43 4.46Q61.68 4.57 61.89 4.74L61.89 4.74L61.89 4.74Q62.10 4.92 62.21 5.16L62.21 5.16L62.21 5.16Q62.33 5.41 62.39 5.75L62.39 5.75L62.39 5.75Q62.45 6.08 62.45 6.52L62.45 6.52L61.24 6.80L61.24 6.80Q61.17 6.05 61.15 5.95L61.15 5.95L61.15 5.95Q61.07 5.60 60.76 5.48L60.76 5.48L60.76 5.48Q60.42 5.33 59.33 5.33L59.33 5.33L59.33 5.33Q58.73 5.33 58.35 5.37L58.35 5.37L58.35 5.37Q57.96 5.40 57.72 5.47L57.72 5.47L57.72 5.47Q57.47 5.53 57.35 5.66L57.35 5.66L57.35 5.66Q57.23 5.79 57.19 5.94L57.19 5.94L57.19 5.94Q57.15 6.08 57.15 6.32L57.15 6.32L57.15 7.51L57.15 7.51Q57.15 8.15 57.71 8.24L57.71 8.24L60.16 8.66L60.16 8.66Q60.50 8.72 60.70 8.76L60.70 8.76L60.70 8.76Q60.91 8.80 61.17 8.87L61.17 8.87L61.17 8.87Q61.44 8.93 61.59 9.01L61.59 9.01L61.59 9.01Q61.74 9.08 61.93 9.20L61.93 9.20L61.93 9.20Q62.11 9.32 62.21 9.46L62.21 9.46L62.21 9.46Q62.32 9.60 62.42 9.80L62.42 9.80L62.42 9.80Q62.53 10.00 62.58 10.25L62.58 10.25L62.58 10.25Q62.63 10.50 62.67 10.82L62.67 10.82L62.67 10.82Q62.70 11.14 62.70 11.53ZM67.46 13.57L67.46 13.57L67.44 14.53L67.44 14.53Q66.86 14.62 66.40 14.62L66.40 14.62L66.40 14.62Q65.90 14.62 65.57 14.51L65.57 14.51L65.57 14.51Q65.25 14.40 65.08 14.16L65.08 14.16L65.08 14.16Q64.92 13.92 64.86 13.63L64.86 13.63L64.86 13.63Q64.80 13.34 64.80 12.89L64.80 12.89L64.80 7.79L63.78 7.79L63.78 7.02L64.80 7.02L64.80 4.89L66.14 4.78L66.14 7.02L67.52 7.02L67.52 7.79L66.14 7.79L66.14 12.43L66.14 12.43Q66.14 13.17 66.21 13.39L66.21 13.39L66.21 13.39Q66.28 13.61 66.60 13.61L66.60 13.61L66.60 13.61Q66.92 13.61 67.46 13.57ZM73.63 7.02L75.00 7.02L72.64 14.16L72.64 14.16Q72.55 14.42 72.45 14.78L72.45 14.78L72.45 14.78Q72.35 15.15 72.29 15.37L72.29 15.37L72.29 15.37Q72.22 15.60 72.12 15.87L72.12 15.87L72.12 15.87Q72.02 16.14 71.91 16.30L71.91 16.30L71.91 16.30Q71.79 16.46 71.62 16.61L71.62 16.61L71.62 16.61Q71.45 16.75 71.21 16.82L71.21 16.82L71.21 16.82Q70.97 16.88 70.66 16.88L70.66 16.88L70.66 16.88Q69.84 16.88 69.18 16.73L69.18 16.73L69.38 15.69L69.38 15.69Q69.51 15.70 69.73 15.74L69.73 15.74L69.73 15.74Q69.95 15.78 70.11 15.80L70.11 15.80L70.11 15.80Q70.27 15.82 70.41 15.82L70.41 15.82L70.41 15.82Q70.85 15.82 71.07 15.52L71.07 15.52L71.07 15.52Q71.30 15.22 71.31 14.40L71.31 14.40L68.50 7.02L69.86 7.02L71.24 10.83L71.24 10.83Q71.61 11.87 71.93 12.79L71.93 12.79L71.93 12.79Q72.16 11.96 72.60 10.51L72.60 10.51L73.63 7.02ZM77.72 4.25L77.72 14.52L76.37 14.52L76.37 4.36L77.72 4.25ZM85.74 10.66L85.74 10.66L85.74 10.66Q84.92 10.75 84.72 10.76L84.72 10.76L80.99 10.76L80.99 10.76Q81.00 11.75 81.05 12.93L81.05 12.93L81.05 12.93Q81.08 13.39 81.44 13.54L81.44 13.54L81.44 13.54Q81.80 13.69 82.84 13.69L82.84 13.69L82.84 13.69Q83.23 13.69 83.51 13.65L83.51 13.65L83.51 13.65Q83.79 13.62 83.96 13.55L83.96 13.55L83.96 13.55Q84.14 13.47 84.24 13.40L84.24 13.40L84.24 13.40Q84.33 13.32 84.38 13.17L84.38 13.17L84.38 13.17Q84.43 13.02 84.44 12.91L84.44 12.91L84.44 12.91Q84.46 12.80 84.47 12.59L84.47 12.59L84.47 12.59Q84.49 12.37 84.51 12.24L84.51 12.24L85.55 12.43L85.55 12.43Q85.54 12.91 85.48 13.24L85.48 13.24L85.48 13.24Q85.43 13.57 85.30 13.82L85.30 13.82L85.30 13.82Q85.17 14.08 84.99 14.22L84.99 14.22L84.99 14.22Q84.81 14.37 84.51 14.46L84.51 14.46L84.51 14.46Q84.21 14.56 83.85 14.59L83.85 14.59L83.85 14.59Q83.49 14.62 82.95 14.62L82.95 14.62L82.95 14.62Q82.27 14.62 81.76 14.54L81.76 14.54L81.76 14.54Q81.26 14.46 80.90 14.35L80.90 14.35L80.90 14.35Q80.54 14.23 80.31 13.97L80.31 13.97L80.31 13.97Q80.08 13.71 79.94 13.47L79.94 13.47L79.94 13.47Q79.81 13.23 79.75 12.76L79.75 12.76L79.75 12.76Q79.69 12.30 79.67 11.92L79.67 11.92L79.67 11.92Q79.65 11.54 79.65 10.87L79.65 10.87L79.65 10.87Q79.65 9.93 79.68 9.40L79.68 9.40L79.68 9.40Q79.70 8.87 79.81 8.34L79.81 8.34L79.81 8.34Q79.92 7.81 80.10 7.57L80.10 7.57L80.10 7.57Q80.29 7.33 80.65 7.13L80.65 7.13L80.65 7.13Q81.01 6.92 81.50 6.87L81.50 6.87L81.50 6.87Q82.00 6.81 82.76 6.81L82.76 6.81L82.76 6.81Q83.28 6.81 83.67 6.84L83.67 6.84L83.67 6.84Q84.05 6.87 84.37 6.97L84.37 6.97L84.37 6.97Q84.69 7.06 84.90 7.18L84.90 7.18L84.90 7.18Q85.11 7.31 85.27 7.55L85.27 7.55L85.27 7.55Q85.43 7.79 85.51 8.04L85.51 8.04L85.51 8.04Q85.60 8.30 85.65 8.72L85.65 8.72L85.65 8.72Q85.71 9.15 85.72 9.58L85.72 9.58L85.72 9.58Q85.74 10.01 85.74 10.66ZM81.00 10.04L81.00 10.04L84.39 10.04L84.39 10.04Q84.38 9.17 84.32 8.44L84.32 8.44L84.32 8.44Q84.29 8.03 83.96 7.89L83.96 7.89L83.96 7.89Q83.63 7.75 82.75 7.75L82.75 7.75L82.75 7.75Q81.77 7.75 81.51 7.85L81.51 7.85L81.51 7.85Q81.40 7.89 81.31 7.97L81.31 7.97L81.31 7.97Q81.22 8.06 81.17 8.22L81.17 8.22L81.17 8.22Q81.12 8.37 81.08 8.51L81.08 8.51L81.08 8.51Q81.05 8.65 81.04 8.89L81.04 8.89L81.04 8.89Q81.02 9.13 81.01 9.27L81.01 9.27L81.01 9.27Q81.01 9.40 81.00 9.67L81.00 9.67L81.00 9.67Q81.00 9.95 81.00 10.04Z"></path></g><!----><g data-v-423bf9ae="" id="b709b2e3-60bc-47f8-bbd8-78d1296c1a18" transform="matrix(1.0441997951931423,0,0,1.0441997951931423,171.69140694938574,0.9341054473369823)" stroke="none" fill="#001C0F"><path d="M22.078 40.921c1.564 0 2.833-2.055 2.833-4.591s-1.269-4.591-2.833-4.591-2.833 2.055-2.833 4.591 1.268 4.591 2.833 4.591zm12.504 0c1.564 0 2.834-2.055 2.834-4.591s-1.27-4.591-2.834-4.591c-1.563 0-2.832 2.055-2.832 4.591s1.267 4.591 2.832 4.591zm-5.904 8.334c9.161-.022 14.968-6.322 15.042-6.384a.864.864 0 1 0-1.269-1.177c-.002 0-.312.341-.951.886-1.922 1.649-6.584 4.953-12.824 4.946-4.198 0-7.729-1.241-10.212-2.489-1.241-.624-2.218-1.246-2.879-1.709s-.983-.751-.985-.75a.864.864 0 1 0-1.137 1.302c.077.058 6.123 5.361 15.215 5.375zm17.646.122c6.002-5.146 9.811-12.78 9.812-21.309C56.134 12.566 43.57.002 28.067 0 12.566.002.002 12.566 0 28.069c.001 8.688 3.949 16.45 10.146 21.599C2.175 56.27.23 67.616.217 79.99c.085 1.19.746 1.532 1.027 1.756.595.377 1.133.543 1.765.752.929.293 1.986.563 2.76.812.124.039.239.078.344.117.367 4.531 2.602 7.623 5.904 8.992 3.438 1.481 7.659 1.541 12.481 1.559 1.185 0 2.41-.006 3.668-.006 5.755-.013 10.834.039 14.91-1.31 2.033-.681 3.853-1.779 5.158-3.484 1.172-1.518 1.881-3.445 2.135-5.75a39.396 39.396 0 0 1 2.219-.688c.631-.189 1.238-.378 1.797-.615.281-.127.55-.252.863-.486.269-.223.822-.643.867-1.647-.004-6.8-.455-13.207-2.152-18.769-1.434-4.715-3.85-8.844-7.639-11.846zM3.541 29.976l4.822-7.18s5.228 3.785 16.299 6.26c11.07 2.476 21.496-.118 21.496-.118s2.945 5.488 5.102 7.345c-1.563 4.406-4.354 8.223-7.948 11.069l-.097-.058-.926.674c-4.049 2.94-8.992 4.692-14.368 4.708-.144-.002-.287-.008-.43-.012-.288-.004-.572-.021-.857-.033-12.288-.726-22.137-10.43-23.093-22.655zm31.834 25.192a5.394 5.394 0 0 1-1.086 1.428c-1.065.982-2.793 1.879-6.042 1.891-4.44-.038-6.16-1.534-7.12-2.875-.083-.12-.149-.241-.22-.362 1.809.463 3.686.748 5.614.844.234.012.473.016.709.021.208.006.412.021.621.021.024 0 .049-.004.072-.004.049.002.096.004.143.004a28.141 28.141 0 0 0 7.309-.968zm14.708 24.709c-.16.049-.311.102-.463.151l-2.096-15.271s-.476 16.953-.535 17.623c-.141 2.188-.691 3.643-1.494 4.688-1.184 1.552-3.195 2.468-6.209 2.953-2.986.484-6.811.496-11.119.494-1.269 0-2.495.006-3.668.006-4.76.017-8.679-.178-11.091-1.268-2.346-1.113-3.606-2.605-3.892-6.857-.783-6.032-.104-17.639-.104-17.639L7.3 80.149l.118.078c-.84-.319-1.741-.531-2.628-.805-.417-.119-.81-.24-1.113-.346.093-12.081 2.331-22.054 9.263-27.238a27.974 27.974 0 0 0 3.859 2.014 9.202 9.202 0 0 0 1.473 3.705c1.515 2.289 4.698 4.426 9.975 4.387h.157c5.113 0 8.217-2.192 9.664-4.522a9.679 9.679 0 0 0 1.395-3.703 27.836 27.836 0 0 0 3.994-2.182c3.562 2.521 5.787 6.116 7.201 10.696 1.463 4.775 1.959 10.566 1.998 16.857-.639.229-1.662.508-2.573.787z"></path></g><!----></svg>